<?xml version="1.0" encoding="utf-8"?>
<!DOCTYPE svg PUBLIC "-//W3C//DTD SVG 1.1//EN" "http://www.w3.org/Graphics/SVG/1.1/DTD/svg11.dtd">
<svg version="1.1" xmlns="http://www.w3.org/2000/svg" xmlns:xlink="http://www.w3.org/1999/xlink" x="0px" y="0px" width="500px" height="500px" viewBox="0 0 500 500" enable-background="new 0 0 500 500" xml:space="preserve">
	<g id="background">
		<rect fill="#222222" x="0" y="0" width="500" height="500"/>
	</g>
	<g transform="translate(0,-552.36218)">
		<path d="M223.45,68.9,179.35,194.96,45.572,195.33,153.99,275.45,115.03,404.81,224.55,327.27,337.02,409.59,295.85,275.08,403.17,194.96,269.76,195.33,223.45,68.9" transform="translate(0,552.36218)" fill="#e08524"/>
		<path d="m228.96,67.062,44.47,20.949,37.119,101.44-36.752,0-44.837-122.38" transform="translate(0,552.36218)" fill="#466770"/>
		<path d="m305.35,277.81,43.919,21.57,106.29-77.183-43.919-23.389-106.29,79.002" transform="translate(0,552.36218)" fill="#304a51"/>
		<path d="m305.29,277.73,43.979,21.554,41.58,134.45-45.478-23.129-40.081-132.87" transform="translate(0,552.36218)" fill="#466770"/>
		<path d="m121.28,409.41,103.27-73.871,36.201,26.829-97.576,68.359-41.897-21.316" transform="translate(0,552.36218)" fill="#304a51"/>
	</g>
</svg>

