<svg xmlns="http://www.w3.org/2000/svg" viewBox="0 0 500 500"><rect width="100%" height="100%" fill="#222"/><path fill="#e08524" d="M223.45 68.9l-44.1 126.06-133.778.37 108.418 80.12-38.96 129.36 109.52-77.54 112.47 82.32-41.17-134.51 107.32-80.12-133.41.37L223.45 68.9"/><path fill="#466770" d="M228.96 67.062l44.47 20.949 37.119 101.44h-36.752L228.96 67.071"/><path fill="#304a51" d="M305.35 277.81l43.919 21.57 106.29-77.183-43.919-23.389-106.29 79.002"/><path fill="#466770" d="M305.29 277.73l43.979 21.554 41.58 134.45-45.478-23.129-40.081-132.87"/><path fill="#304a51" d="M121.28 409.41l103.27-73.871 36.201 26.829-97.576 68.359-41.897-21.316"/></svg>
